<svg xmlns="http://www.w3.org/2000/svg" viewBox="0 0 9.596 12.595">
  <defs>
    <style>
      .cls-1 {
        fill: #bfbfbf;
      }
    </style>
  </defs>
  <path id="ic_lock_outline_24px" class="cls-1" d="M8.8,10.6A1.2,1.2,0,1,0,7.6,9.4,1.2,1.2,0,0,0,8.8,10.6Zm3.6-5.4h-.6V4a3,3,0,1,0-6,0V5.2H5.2A1.2,1.2,0,0,0,4,6.4v6a1.2,1.2,0,0,0,1.2,1.2h7.2a1.2,1.2,0,0,0,1.2-1.2v-6A1.2,1.2,0,0,0,12.4,5.2ZM6.939,4a1.859,1.859,0,0,1,3.719,0V5.2H6.939ZM12.4,12.4H5.2v-6h7.2Z" transform="translate(-4 -1)"/>
</svg>
